<?xml version="1.0" encoding="iso-8859-1"?>
<!-- Uploaded to: SVG Repo, www.svgrepo.com, Generator: SVG Repo Mixer Tools -->
<svg height="800px" width="800px" version="1.1" id="Layer_1" xmlns="http://www.w3.org/2000/svg" xmlns:xlink="http://www.w3.org/1999/xlink" 
	 viewBox="0 0 512.154 512.154" xml:space="preserve">
<g transform="translate(1 1)">
	<g>
		<polygon style="fill:#1CD759;" points="408.677,306.277 434.277,255.077 476.944,255.077 442.81,297.744 476.944,340.41 
			408.677,340.41 		"/>
		<polygon style="fill:#1CD759;" points="101.477,306.277 75.877,255.077 33.21,255.077 67.344,297.744 33.21,340.41 
			101.477,340.41 		"/>
	</g>
	<g>
		<path style="fill:#FCC309;" d="M110.01,306.277c21.333,59.733,77.653,102.4,145.067,102.4s123.733-42.667,145.067-102.4H110.01z"
			/>
		<path style="fill:#FCC309;" d="M404.41,220.944c-15.36-68.267-75.947-119.467-149.333-119.467s-133.973,51.2-149.333,119.467
			H404.41z"/>
	</g>
	<g>
		<path style="fill:#FFDD09;" d="M369.424,220.944c-14.507-48.64-60.587-85.333-114.347-85.333s-99.84,35.84-114.347,85.333H369.424
			z"/>
		<path style="fill:#FFDD09;" d="M147.557,306.277c19.627,40.107,60.587,68.267,107.52,68.267s88.747-28.16,107.52-68.267H147.557z"
			/>
	</g>
	<polygon style="fill:#1CD759;" points="75.877,306.277 434.277,306.277 434.277,220.944 75.877,220.944 	"/>
	<polygon style="fill:#FFFFFF;" points="33.21,255.077 7.61,255.077 41.744,297.744 7.61,340.41 33.21,340.41 67.344,297.744 	"/>
	<polygon style="fill:#15A143;" points="476.944,255.077 502.544,255.077 468.41,297.744 502.544,340.41 476.944,340.41 
		442.81,297.744 	"/>
	<path d="M434.277,314.81h-358.4c-5.12,0-8.533-3.413-8.533-8.533v-85.333c0-5.12,3.413-8.533,8.533-8.533h358.4
		c5.12,0,8.533,3.413,8.533,8.533v85.333C442.81,311.397,439.397,314.81,434.277,314.81z M84.41,297.744h341.333v-68.267H84.41
		V297.744z"/>
	<path d="M101.477,348.944H7.61c-3.413,0-5.973-1.707-7.68-5.12c-1.707-2.56-0.853-6.827,0.853-9.387l29.867-36.693L0.784,260.197
		c-1.707-2.56-2.56-5.973-0.853-9.387c1.707-1.707,4.267-4.267,7.68-4.267h68.267c5.12,0,8.533,3.413,8.533,8.533v42.667h17.067
		c5.12,0,8.533,3.413,8.533,8.533v34.133C110.01,345.53,106.597,348.944,101.477,348.944z M25.53,331.877h67.413V314.81H75.877
		c-5.12,0-8.533-3.413-8.533-8.533V263.61H25.53l23.04,29.013c2.56,3.413,2.56,7.68,0,10.24L25.53,331.877z"/>
	<path d="M502.544,348.944h-93.867c-5.12,0-8.533-3.413-8.533-8.533v-34.133c0-5.12,3.413-8.533,8.533-8.533h17.067v-42.667
		c0-5.12,3.413-8.533,8.533-8.533h68.267c3.413,0,5.973,1.707,7.68,5.12c1.707,2.56,0.853,6.827-0.853,9.387l-29.867,36.693
		l29.867,37.547c1.707,2.56,2.56,5.973,0.853,9.387C508.517,347.237,505.957,348.944,502.544,348.944z M417.21,331.877h67.413
		l-23.04-29.013c-2.56-3.413-2.56-7.68,0-10.24l23.04-29.013H442.81v42.667c0,5.12-3.413,8.533-8.533,8.533H417.21V331.877z"/>
	<g>
		<path style="fill:#110E0E;" d="M255.077,417.21c-68.267,0-129.707-43.52-152.747-108.373c-0.853-2.56-0.853-5.12,0.853-7.68
			c1.707-2.56,4.267-3.413,6.827-3.413h290.133c2.56,0,5.12,1.707,6.827,3.413c1.707,1.707,1.707,5.12,0.853,7.68
			C384.784,373.69,323.344,417.21,255.077,417.21z M122.81,314.81c23.04,51.2,75.093,85.333,132.267,85.333
			S363.45,366.01,387.344,314.81H122.81z"/>
		<path style="fill:#110E0E;" d="M404.41,229.477H105.744c-2.56,0-5.12-0.853-6.827-3.413c-1.707-1.707-2.56-4.267-1.707-6.827
			c5.973-26.453,18.773-51.2,37.547-71.68c3.413-3.413,8.533-3.413,11.947-0.853c3.413,3.413,3.413,8.533,0.853,11.947
			c-13.653,15.36-24.747,34.133-30.72,53.76H394.17c-18.773-60.587-74.24-102.4-139.093-102.4c-23.04,0-44.373,5.12-64.853,15.36
			c-4.267,1.707-9.387,0-11.093-3.413c-1.707-4.267,0-9.387,3.413-11.093c23.04-11.947,46.933-17.92,72.533-17.92
			c75.947,0,140.8,52.053,157.867,126.293c0.853,2.56,0,5.12-1.707,6.827C409.53,228.624,406.97,229.477,404.41,229.477z"/>
		<path style="fill:#110E0E;" d="M169.744,132.197c0-5.12-3.413-8.533-8.533-8.533c-5.12,0-8.533,3.413-8.533,8.533
			c0,5.12,3.413,8.533,8.533,8.533C166.33,140.73,169.744,136.464,169.744,132.197"/>
		<path style="fill:#110E0E;" d="M369.424,229.477H140.73c-2.56,0-5.12-0.853-6.827-3.413s-1.707-5.12-1.707-7.68
			c16.213-53.76,66.56-91.307,122.88-91.307s106.667,37.547,122.88,91.307c0.853,2.56,0,5.12-1.707,7.68
			S371.984,229.477,369.424,229.477z M152.677,212.41h204.8c-17.067-40.96-58.027-68.267-102.4-68.267
			S169.744,172.304,152.677,212.41z"/>
		<path style="fill:#110E0E;" d="M255.077,383.077c-48.64,0-93.867-29.013-115.2-73.387c-0.853-2.56-0.853-5.973,0.853-8.533
			c1.707-2.56,4.267-4.267,6.827-4.267H363.45c2.56,0,5.973,1.707,6.827,4.267c1.707,2.56,1.707,5.973,0.853,8.533
			C348.944,354.917,303.717,383.077,255.077,383.077z M162.064,314.81c20.48,31.573,55.467,51.2,93.013,51.2
			s73.387-19.627,93.013-51.2H162.064z"/>
	</g>
</g>
</svg>